<svg width="31" height="31" viewBox="0 0 31 31" fill="none" xmlns="http://www.w3.org/2000/svg">
<circle cx="29" cy="29" r="2" transform="rotate(180 29 29)" fill="#666666" fill-opacity="0.75"/>
<circle cx="20" cy="29" r="2" transform="rotate(180 20 29)" fill="#666666" fill-opacity="0.75"/>
<circle cx="20" cy="20" r="2" transform="rotate(180 20 20)" fill="#666666" fill-opacity="0.75"/>
<circle cx="29" cy="20" r="2" transform="rotate(180 29 20)" fill="#666666" fill-opacity="0.75"/>
<circle cx="20" cy="11" r="2" transform="rotate(180 20 11)" fill="#666666" fill-opacity="0.75"/>
<circle cx="29" cy="11" r="2" transform="rotate(180 29 11)" fill="#666666" fill-opacity="0.75"/>
<circle cx="29" cy="2" r="2" transform="rotate(180 29 2)" fill="#666666" fill-opacity="0.75"/>
<circle cx="11" cy="29" r="2" transform="rotate(180 11 29)" fill="#666666" fill-opacity="0.75"/>
<circle cx="11" cy="20" r="2" transform="rotate(180 11 20)" fill="#666666" fill-opacity="0.75"/>
<circle cx="2" cy="29" r="2" transform="rotate(180 2 29)" fill="#666666" fill-opacity="0.75"/>
</svg>
